<?xml version="1.0" encoding="UTF-8"?>
<svg xmlns="http://www.w3.org/2000/svg" xmlns:xlink="http://www.w3.org/1999/xlink" width="1600pt" height="1600pt" viewBox="0 0 1600 1600" version="1.1">
<g id="surface1">
<path style=" stroke:none;fill-rule:nonzero;fill:rgb(0%,0%,0%);fill-opacity:1;" d="M 1440 0 L 160 0 C 72 0 0 72 0 160 L 0 1440 C 0 1528 72 1600 160 1600 L 1440 1600 C 1528 1600 1600 1528 1600 1440 L 1600 160 C 1600 72 1528 0 1440 0 Z M 1256 584 C 1248 952 1016 1208 664 1224 C 520 1232 416 1184 320 1128 C 424 1144.003906 560 1104.003906 632 1040 C 528 1032 464 976 432 888 C 464 896 496 888 520 888 C 424 856 360 800 352 672 C 376 688 408 696 440 696 C 368 656 320 504 376 408 C 480 520 608 616 816 632 C 760 408 1064.003906 288 1184.003906 440 C 1240.003906 432 1280.003906 408 1320.003906 392 C 1304.003906 448 1272.003906 480 1232.003906 512 C 1272.003906 504 1312.003906 496 1344.003906 480 C 1336 520 1296 552 1256 584 Z M 1256 584 "/>
</g>
</svg>
